<svg width="103" height="102" viewBox="0 0 103 102" fill="none" xmlns="http://www.w3.org/2000/svg">
<path d="M50.7167 100.449C78.1804 100.999 100.889 79.1801 101.439 51.7164C101.988 24.2527 80.1697 1.54372 52.706 0.994483C25.2423 0.445245 2.53321 22.2637 1.9839 49.7274C1.43459 77.1912 23.253 99.9001 50.7167 100.449Z" fill="white"/>
<path d="M51.9632 89.5122C44.2918 89.5122 36.7926 87.2373 30.4141 82.9753C24.0355 78.7133 19.0641 72.6557 16.1283 65.5683C13.1926 58.4808 12.4245 50.6819 13.9211 43.1579C15.4177 35.6339 19.1118 28.7225 24.5364 23.298C29.9609 17.8735 36.8721 14.1794 44.3961 12.6828C51.9202 11.1862 59.719 11.9542 66.8065 14.89C73.894 17.8257 79.9518 22.7974 84.2138 29.1759C88.4758 35.5545 90.7506 43.0534 90.7506 50.7248C90.739 61.0083 86.6488 70.8675 79.3773 78.139C72.1057 85.4106 62.2467 89.5006 51.9632 89.5122ZM51.9632 14.8832C44.8744 14.8832 37.9448 16.9855 32.0507 20.9238C26.1566 24.8621 21.5626 30.4598 18.8499 37.009C16.1371 43.5582 15.4274 50.7647 16.8104 57.7172C18.1933 64.6698 21.6069 71.0563 26.6194 76.0688C31.632 81.0813 38.0183 84.4949 44.9709 85.8778C51.9234 87.2608 59.13 86.551 65.6791 83.8382C72.2283 81.1255 77.826 76.5318 81.7643 70.6376C85.7026 64.7435 87.8047 57.8136 87.8047 50.7248C87.7957 41.2212 84.017 32.1097 77.2975 25.3891C70.578 18.6685 61.4668 14.8879 51.9632 14.8773V14.8832Z" fill="#EFEFEF" stroke="#EFEFEF" stroke-width="1.06783"/>
<path d="M89.3015 51.72C88.9157 51.72 88.5455 51.5668 88.2725 51.2942C87.9995 51.0215 87.8459 50.6519 87.8454 50.2661C87.8317 40.8801 84.0971 31.8825 77.4602 25.2455C70.8232 18.6086 61.8255 14.8737 52.4395 14.8601C52.2439 14.8673 52.0488 14.8352 51.866 14.7654C51.6831 14.6955 51.5163 14.5894 51.3754 14.4536C51.2344 14.3178 51.1223 14.1549 51.0458 13.9748C50.9692 13.7946 50.9297 13.6009 50.9297 13.4051C50.9297 13.2094 50.9692 13.0156 51.0458 12.8355C51.1223 12.6554 51.2344 12.4925 51.3754 12.3567C51.5163 12.2209 51.6831 12.1148 51.866 12.0449C52.0488 11.9751 52.2439 11.943 52.4395 11.9502C62.6006 11.9618 72.3422 16.0034 79.5272 23.1884C86.7122 30.3734 90.7538 40.1152 90.7654 50.2763C90.7623 50.6618 90.6065 51.0302 90.332 51.3009C90.0576 51.5717 89.687 51.7222 89.3015 51.72Z" fill="#d7ad50" stroke="#d7ad50" stroke-width="1.06783"/>
<path d="M45.9877 62.8887V60.3472H51.4443V42.7814H47.1089V40.8006C48.2052 40.6012 49.1521 40.3645 49.9494 40.0905C50.7716 39.7915 51.5066 39.4427 52.1544 39.044H54.509V60.3472H59.4424V62.8887H45.9877Z" fill="#1A1D30"/>
</svg>
