<svg width="103" height="102" viewBox="0 0 103 102" fill="none" xmlns="http://www.w3.org/2000/svg">
<path d="M50.5722 100.449C78.0359 100.999 100.745 79.1801 101.294 51.7164C101.844 24.2527 80.0251 1.54373 52.5614 0.994489C25.0977 0.445248 2.38868 22.2637 1.83938 49.7274C1.29007 77.1912 23.1085 99.9001 50.5722 100.449Z" fill="white"/>
<path d="M51.8186 89.5122C44.1472 89.5122 36.6481 87.2373 30.2695 82.9753C23.891 78.7133 18.9195 72.6557 15.9838 65.5683C13.0481 58.4808 12.2799 50.6819 13.7765 43.1579C15.2732 35.6339 18.9673 28.7225 24.3918 23.298C29.8163 17.8735 36.7276 14.1794 44.2516 12.6828C51.7756 11.1862 59.5745 11.9542 66.662 14.89C73.7495 17.8257 79.8072 22.7974 84.0693 29.1759C88.3313 35.5545 90.6061 43.0534 90.6061 50.7248C90.5945 61.0083 86.5043 70.8675 79.2327 78.139C71.9612 85.4106 62.1022 89.5006 51.8186 89.5122ZM51.8186 14.8832C44.7299 14.8832 37.8003 16.9855 31.9062 20.9238C26.0121 24.8621 21.4181 30.4598 18.7053 37.009C15.9926 43.5582 15.2829 50.7647 16.6659 57.7172C18.0488 64.6698 21.4624 71.0563 26.4749 76.0688C31.4874 81.0813 37.8738 84.4949 44.8263 85.8778C51.7789 87.2608 58.9854 86.551 65.5346 83.8382C72.0838 81.1255 77.6815 76.5318 81.6198 70.6376C85.5581 64.7435 87.6602 57.8136 87.6602 50.7248C87.6512 41.2212 83.8724 32.1097 77.1529 25.3891C70.4335 18.6685 61.3222 14.8879 51.8186 14.8773V14.8832Z" fill="#EFEFEF" stroke="#EFEFEF" stroke-width="1.06783"/>
<path d="M51.8284 89.5123C51.4377 89.5123 51.0632 89.3573 50.7869 89.0811C50.5107 88.8049 50.3555 88.4301 50.3555 88.0394C50.3555 87.6488 50.5107 87.274 50.7869 86.9978C51.0632 86.7215 51.4377 86.5665 51.8284 86.5665C61.3341 86.5665 70.4505 82.7905 77.1721 76.0689C83.8937 69.3473 87.67 60.2307 87.67 50.7249C87.67 41.2191 83.8937 32.103 77.1721 25.3814C70.4505 18.6598 61.3341 14.8833 51.8284 14.8833C51.4377 14.8833 51.0632 14.7283 50.7869 14.452C50.5107 14.1758 50.3555 13.801 50.3555 13.4104C50.3555 13.0197 50.5107 12.6454 50.7869 12.3692C51.0632 12.093 51.4377 11.9375 51.8284 11.9375C62.1154 11.9375 71.9811 16.024 79.2552 23.2981C86.5292 30.5721 90.6158 40.4378 90.6158 50.7249C90.6158 61.012 86.5292 70.8777 79.2552 78.1517C71.9811 85.4258 62.1154 89.5123 51.8284 89.5123Z" fill="#d7ad50" stroke="#d7ad50" stroke-width="1.06783"/>
<path d="M44.3856 62.8887V61.0573C46.1795 59.2634 47.7742 57.6438 49.1695 56.1987C50.5648 54.7536 51.7358 53.4206 52.6826 52.1997C53.6295 50.9539 54.352 49.8202 54.8503 48.7986C55.3487 47.7522 55.5978 46.7431 55.5978 45.7713C55.5978 44.4009 55.2241 43.2797 54.4766 42.4077C53.7291 41.5356 52.5954 41.0996 51.0756 41.0996C50.0789 41.0996 49.157 41.3861 48.3099 41.9592C47.4627 42.5073 46.6903 43.1801 45.9927 43.9774L44.2361 42.2208C45.2327 41.1245 46.2917 40.2524 47.4129 39.6046C48.5341 38.9319 49.8796 38.5955 51.4493 38.5955C53.6668 38.5955 55.4109 39.2433 56.6817 40.539C57.9524 41.8097 58.5877 43.504 58.5877 45.6218C58.5877 46.7431 58.3386 47.8767 57.8403 49.0229C57.3669 50.1441 56.6941 51.3152 55.8221 52.536C54.9749 53.732 53.9534 54.9903 52.7574 56.3108C51.5863 57.6065 50.2907 58.9893 48.8705 60.4594C49.5183 60.4095 50.191 60.3597 50.8887 60.3099C51.5863 60.26 52.2466 60.2351 52.8695 60.2351H59.7837V62.8887H44.3856Z" fill="black"/>
</svg>
